<svg xmlns="http://www.w3.org/2000/svg" width="700" height="1400" viewBox="0 0 700 1400" fill="none">
  <defs>
    <linearGradient id="g1" x1="0" y1="0" x2="1" y2="1">
      <stop offset="0" stop-color="#F0FDFA"/>
      <stop offset="1" stop-color="#EEF2FF"/>
    </linearGradient>
    <linearGradient id="chart" x1="0" y1="0" x2="1" y2="0">
      <stop offset="0" stop-color="#34D399"/>
      <stop offset="1" stop-color="#60A5FA"/>
    </linearGradient>
  </defs>
  <rect width="700" height="1400" rx="100" fill="white"/>
  <rect x="8" y="8" width="684" height="1384" rx="92" fill="url(#g1)"/>
  <rect x="60" y="90" width="580" height="50" rx="25" fill="#111827"/>
  <circle cx="350" cy="115" r="5" fill="#374151"/>

  <rect x="100" y="210" width="500" height="320" rx="28" fill="white" stroke="#E5E7EB"/>
  <rect x="130" y="240" width="180" height="18" rx="9" fill="#111827"/>
  <rect x="130" y="268" width="240" height="14" rx="7" fill="#9CA3AF"/>
  <rect x="130" y="300" width="440" height="190" rx="16" fill="#F9FAFB"/>
  <path d="M150 458 C210 350, 290 540, 360 430 C430 320, 510 520, 560 400" stroke="url(#chart)" stroke-width="8" fill="none" />
  <circle cx="200" cy="400" r="6" fill="#34D399"/>
  <circle cx="360" cy="430" r="6" fill="#60A5FA"/>
  <circle cx="520" cy="410" r="6" fill="#34D399"/>

  <rect x="100" y="560" width="500" height="220" rx="28" fill="white" stroke="#E5E7EB"/>
  <rect x="130" y="590" width="150" height="16" rx="8" fill="#111827"/>
  <rect x="130" y="620" width="200" height="14" rx="7" fill="#9CA3AF"/>
  <rect x="130" y="650" width="420" height="18" rx="9" fill="#EEF2FF"/>
  <rect x="130" y="680" width="380" height="18" rx="9" fill="#ECFEFF"/>
  <rect x="130" y="710" width="320" height="18" rx="9" fill="#F0FDFA"/>

  <rect x="200" y="880" width="300" height="64" rx="32" fill="#111827" opacity="0.9"/>
  <rect x="230" y="904" width="240" height="16" rx="8" fill="#F9FAFB"/>
</svg>
