<svg xmlns="http://www.w3.org/2000/svg" width="900" height="1800" viewBox="0 0 900 1800" fill="none">
  <defs>
    <linearGradient id="g1" x1="0" y1="0" x2="1" y2="1">
      <stop offset="0" stop-color="#EEF2FF"/>
      <stop offset="1" stop-color="#F5F3FF"/>
    </linearGradient>
    <linearGradient id="btn" x1="0" y1="0" x2="1" y2="1">
      <stop offset="0" stop-color="#6366F1"/>
      <stop offset="1" stop-color="#8B5CF6"/>
    </linearGradient>
  </defs>
  <rect width="900" height="1800" rx="120" fill="white"/>
  <rect x="10" y="10" width="880" height="1780" rx="110" fill="url(#g1)"/>
  <rect x="60" y="120" width="780" height="60" rx="30" fill="#111827"/>
  <circle cx="450" cy="150" r="6" fill="#374151"/>
  <rect x="120" y="260" width="660" height="120" rx="24" fill="white" stroke="#E5E7EB"/>
  <rect x="150" y="292" width="180" height="20" rx="10" fill="#111827"/>
  <rect x="150" y="326" width="260" height="16" rx="8" fill="#9CA3AF"/>
  <rect x="640" y="296" width="110" height="40" rx="20" fill="#F3F4F6"/>
  <rect x="120" y="410" width="660" height="120" rx="24" fill="white" stroke="#E5E7EB"/>
  <rect x="150" y="442" width="200" height="20" rx="10" fill="#111827"/>
  <rect x="150" y="476" width="280" height="16" rx="8" fill="#9CA3AF"/>
  <rect x="640" y="446" width="110" height="40" rx="20" fill="#F3F4F6"/>
  <rect x="120" y="560" width="660" height="120" rx="24" fill="white" stroke="#E5E7EB"/>
  <rect x="150" y="592" width="230" height="20" rx="10" fill="#111827"/>
  <rect x="150" y="626" width="220" height="16" rx="8" fill="#9CA3AF"/>
  <rect x="640" y="596" width="110" height="40" rx="20" fill="#F3F4F6"/>
  <rect x="120" y="710" width="660" height="120" rx="24" fill="white" stroke="#E5E7EB"/>
  <rect x="150" y="742" width="200" height="20" rx="10" fill="#111827"/>
  <rect x="150" y="776" width="240" height="16" rx="8" fill="#9CA3AF"/>
  <rect x="640" y="746" width="110" height="40" rx="20" fill="#F3F4F6"/>
  <rect x="120" y="860" width="660" height="120" rx="24" fill="white" stroke="#E5E7EB"/>
  <rect x="150" y="892" width="180" height="20" rx="10" fill="#111827"/>
  <rect x="150" y="926" width="260" height="16" rx="8" fill="#9CA3AF"/>
  <rect x="640" y="896" width="110" height="40" rx="20" fill="#F3F4F6"/>
  <rect x="120" y="1010" width="660" height="120" rx="24" fill="white" stroke="#E5E7EB"/>
  <rect x="150" y="1042" width="210" height="20" rx="10" fill="#111827"/>
  <rect x="150" y="1076" width="230" height="16" rx="8" fill="#9CA3AF"/>
  <rect x="640" y="1046" width="110" height="40" rx="20" fill="#F3F4F6"/>
  <rect x="120" y="1160" width="660" height="120" rx="24" fill="white" stroke="#E5E7EB"/>
  <rect x="150" y="1192" width="240" height="20" rx="10" fill="#111827"/>
  <rect x="150" y="1226" width="240" height="16" rx="8" fill="#9CA3AF"/>
  <rect x="640" y="1196" width="110" height="40" rx="20" fill="#F3F4F6"/>
  <rect x="260" y="1360" width="380" height="72" rx="36" fill="url(#btn)"/>
  <rect x="320" y="1388" width="260" height="20" rx="10" fill="white" opacity="0.95"/>
</svg>
